<svg xmlns="http://www.w3.org/2000/svg" width="398.592" height="167.29" viewBox="0 0 398.592 167.29"><g transform="translate(-880 -63.908)" opacity="0.5"><path d="M627.349,114.31c-8.957-7.483-10.545-19.353-10.545-19.353l-.012,0s-1.588,11.869-10.544,19.353a42.609,42.609,0,0,1-17.921,8.5l.023.007a42.615,42.615,0,0,1,17.906,8.525c8.945,7.5,10.526,19.372,10.526,19.372h.007s1.606-11.878,10.55-19.373a42.6,42.6,0,0,1,17.907-8.528l.022-.008a42.6,42.6,0,0,1-17.921-8.5" transform="translate(291.672 24.713)" fill="#aadeeb"/><path d="M627.349,114.31c-8.957-7.483-10.545-19.353-10.545-19.353l-.012,0s-1.588,11.869-10.544,19.353a42.609,42.609,0,0,1-17.921,8.5l.023.007a42.615,42.615,0,0,1,17.906,8.525c8.945,7.5,10.526,19.372,10.526,19.372h.007s1.606-11.878,10.55-19.373a42.6,42.6,0,0,1,17.907-8.528l.022-.008a42.6,42.6,0,0,1-17.921-8.5" transform="translate(291.672 80.479)" fill="#aadeeb"/><path d="M627.349,114.31c-8.957-7.483-10.545-19.353-10.545-19.353l-.012,0s-1.588,11.869-10.544,19.353a42.609,42.609,0,0,1-17.921,8.5l.023.007a42.615,42.615,0,0,1,17.906,8.525c8.945,7.5,10.526,19.372,10.526,19.372h.007s1.606-11.878,10.55-19.373a42.6,42.6,0,0,1,17.907-8.528l.022-.008a42.6,42.6,0,0,1-17.921-8.5" transform="translate(348.613 24.713)" fill="#aadeeb"/><path d="M627.349,114.31c-8.957-7.483-10.545-19.353-10.545-19.353l-.012,0s-1.588,11.869-10.544,19.353a42.609,42.609,0,0,1-17.921,8.5l.023.007a42.615,42.615,0,0,1,17.906,8.525c8.945,7.5,10.526,19.372,10.526,19.372h.007s1.606-11.878,10.55-19.373a42.6,42.6,0,0,1,17.907-8.528l.022-.008a42.6,42.6,0,0,1-17.921-8.5" transform="translate(348.613 -31.049)" fill="#aadeeb"/><path d="M627.349,114.31c-8.957-7.483-10.545-19.353-10.545-19.353l-.012,0s-1.588,11.869-10.544,19.353a42.609,42.609,0,0,1-17.921,8.5l.023.007a42.615,42.615,0,0,1,17.906,8.525c8.945,7.5,10.526,19.372,10.526,19.372h.007s1.606-11.878,10.55-19.373a42.6,42.6,0,0,1,17.907-8.528l.022-.008a42.6,42.6,0,0,1-17.921-8.5" transform="translate(405.555 24.713)" fill="#aadeeb"/><path d="M627.349,114.31c-8.957-7.483-10.545-19.353-10.545-19.353l-.012,0s-1.588,11.869-10.544,19.353a42.609,42.609,0,0,1-17.921,8.5l.023.007a42.615,42.615,0,0,1,17.906,8.525c8.945,7.5,10.526,19.372,10.526,19.372h.007s1.606-11.878,10.55-19.373a42.6,42.6,0,0,1,17.907-8.528l.022-.008a42.6,42.6,0,0,1-17.921-8.5" transform="translate(462.498 24.713)" fill="#aadeeb"/><path d="M627.349,114.31c-8.957-7.483-10.545-19.353-10.545-19.353l-.012,0s-1.588,11.869-10.544,19.353a42.609,42.609,0,0,1-17.921,8.5l.023.007a42.615,42.615,0,0,1,17.906,8.525c8.945,7.5,10.526,19.372,10.526,19.372h.007s1.606-11.878,10.55-19.373a42.6,42.6,0,0,1,17.907-8.528l.022-.008a42.6,42.6,0,0,1-17.921-8.5" transform="translate(519.439 24.713)" fill="#aadeeb"/><path d="M627.349,114.31c-8.957-7.483-10.545-19.353-10.545-19.353l-.012,0s-1.588,11.869-10.544,19.353a42.609,42.609,0,0,1-17.921,8.5l.023.007a42.615,42.615,0,0,1,17.906,8.525c8.945,7.5,10.526,19.372,10.526,19.372h.007s1.606-11.878,10.55-19.373a42.6,42.6,0,0,1,17.907-8.528l.022-.008a42.6,42.6,0,0,1-17.921-8.5" transform="translate(576.381 24.713)" fill="#aadeeb"/><path d="M627.349,114.31c-8.957-7.483-10.545-19.353-10.545-19.353l-.012,0s-1.588,11.869-10.544,19.353a42.609,42.609,0,0,1-17.921,8.5l.023.007a42.615,42.615,0,0,1,17.906,8.525c8.945,7.5,10.526,19.372,10.526,19.372h.007s1.606-11.878,10.55-19.373a42.6,42.6,0,0,1,17.907-8.528l.022-.008a42.6,42.6,0,0,1-17.921-8.5" transform="translate(633.322 24.713)" fill="#aadeeb"/><path d="M627.349,114.31c-8.957-7.483-10.545-19.353-10.545-19.353l-.012,0s-1.588,11.869-10.544,19.353a42.609,42.609,0,0,1-17.921,8.5l.023.007a42.615,42.615,0,0,1,17.906,8.525c8.945,7.5,10.526,19.372,10.526,19.372h.007s1.606-11.878,10.55-19.373a42.6,42.6,0,0,1,17.907-8.528l.022-.008a42.6,42.6,0,0,1-17.921-8.5" transform="translate(633.322 -31.049)" fill="#aadeeb"/><path d="M627.349,114.31c-8.957-7.483-10.545-19.353-10.545-19.353l-.012,0s-1.588,11.869-10.544,19.353a42.609,42.609,0,0,1-17.921,8.5l.023.007a42.615,42.615,0,0,1,17.906,8.525c8.945,7.5,10.526,19.372,10.526,19.372h.007s1.606-11.878,10.55-19.373a42.6,42.6,0,0,1,17.907-8.528l.022-.008a42.6,42.6,0,0,1-17.921-8.5" transform="translate(576.381 80.479)" fill="#aadeeb"/><path d="M627.349,114.31c-8.957-7.483-10.545-19.353-10.545-19.353l-.012,0s-1.588,11.869-10.544,19.353a42.609,42.609,0,0,1-17.921,8.5l.023.007a42.615,42.615,0,0,1,17.906,8.525c8.945,7.5,10.526,19.372,10.526,19.372h.007s1.606-11.878,10.55-19.373a42.6,42.6,0,0,1,17.907-8.528l.022-.008a42.6,42.6,0,0,1-17.921-8.5" transform="translate(633.322 80.479)" fill="#aadeeb"/><path d="M627.349,114.31c-8.957-7.483-10.545-19.353-10.545-19.353l-.012,0s-1.588,11.869-10.544,19.353a42.609,42.609,0,0,1-17.921,8.5l.023.007a42.615,42.615,0,0,1,17.906,8.525c8.945,7.5,10.526,19.372,10.526,19.372h.007s1.606-11.878,10.55-19.373a42.6,42.6,0,0,1,17.907-8.528l.022-.008a42.6,42.6,0,0,1-17.921-8.5" transform="translate(462.498 -31.049)" fill="#aadeeb"/><path d="M627.349,114.31c-8.957-7.483-10.545-19.353-10.545-19.353l-.012,0s-1.588,11.869-10.544,19.353a42.609,42.609,0,0,1-17.921,8.5l.023.007a42.615,42.615,0,0,1,17.906,8.525c8.945,7.5,10.526,19.372,10.526,19.372h.007s1.606-11.878,10.55-19.373a42.6,42.6,0,0,1,17.907-8.528l.022-.008a42.6,42.6,0,0,1-17.921-8.5" transform="translate(519.439 -31.049)" fill="#aadeeb"/><path d="M627.349,114.31c-8.957-7.483-10.545-19.353-10.545-19.353l-.012,0s-1.588,11.869-10.544,19.353a42.609,42.609,0,0,1-17.921,8.5l.023.007a42.615,42.615,0,0,1,17.906,8.525c8.945,7.5,10.526,19.372,10.526,19.372h.007s1.606-11.878,10.55-19.373a42.6,42.6,0,0,1,17.907-8.528l.022-.008a42.6,42.6,0,0,1-17.921-8.5" transform="translate(405.555 80.479)" fill="#aadeeb"/></g></svg>